<?xml version="1.0" encoding="UTF-8" standalone="no"?>
<svg
   width="40.594086"
   height="46.306679"
   viewBox="0 0 40.594086 46.306679"
   class="ml-3 ml-md-0"
   version="1.1"
   id="svg5"
   sodipodi:docname="cucumber.svg"
   xmlns:inkscape="http://www.inkscape.org/namespaces/inkscape"
   xmlns:sodipodi="http://sodipodi.sourceforge.net/DTD/sodipodi-0.dtd"
   xmlns="http://www.w3.org/2000/svg"
   xmlns:svg="http://www.w3.org/2000/svg">
  <sodipodi:namedview
     id="namedview5"
     pagecolor="#ffffff"
     bordercolor="#000000"
     borderopacity="0.25"
     inkscape:showpageshadow="2"
     inkscape:pageopacity="0.0"
     inkscape:pagecheckerboard="0"
     inkscape:deskcolor="#d1d1d1" />
  <defs
     id="defs2">
    <style
       id="style1">
      .logo-text {
        fill: #173647;
      }

      .b {
        fill: #23d96c;
      }

      .b,
      .d {
        fill-rule: evenodd;
      }

      .c,
      .d {
        fill: #173647;
      }
    </style>
    <style
       class="darkreader darkreader--sync"
       media="screen"
       id="style2" />
  </defs>
  <g
     transform="translate(-2399.1898,-302.52032)"
     id="g5">
    <g
       transform="translate(2399.068,302.52)"
       id="g4">
      <path
         class="b"
         d="m 2424.8,307.614 q -0.528,-0.317 -1.08,-0.593 c -0.376,-0.184 -0.762,-0.363 -1.154,-0.518 -0.124,-0.052 -0.247,-0.1 -0.372,-0.149 -0.343,-0.127 -0.689,-0.268 -1.042,-0.371 a 19.427,19.427 0 1 0 -9.792,37.51 v 5.56 c 11.676,-1.753 22.016,-10.979 22.787,-23.093 0.459,-7.289 -3.193,-14.73 -9.347,-18.346 z"
         transform="translate(-2394.517,-303.969)"
         id="path2" />
      <path
         class="c"
         d="m 2408.855,348.827 v -5.935 a 20.472,20.472 0 1 1 11.172,-39.357 c 0.274,0.08 0.557,0.187 0.832,0.291 l 0.248,0.093 c 0.165,0.064 0.291,0.113 0.417,0.167 0.348,0.137 0.739,0.313 1.208,0.543 q 0.589,0.295 1.153,0.633 c 6.393,3.756 10.354,11.518 9.857,19.316 -0.763,12 -10.722,22.122 -23.679,24.067 z m 4.8,-44.214 h -0.026 a 18.366,18.366 0 0 0 -3.524,36.408 l 0.85,0.165 v 5.18 c 11.392,-2.224 20.009,-11.272 20.686,-21.922 0.448,-7.033 -3.1,-14.018 -8.83,-17.383 l -0.01,-0.005 c -0.331,-0.2 -0.671,-0.385 -1.01,-0.555 -0.409,-0.2 -0.752,-0.355 -1.071,-0.481 -0.129,-0.055 -0.236,-0.1 -0.344,-0.138 l -0.27,-0.1 c -0.247,-0.094 -0.481,-0.183 -0.708,-0.249 a 18.425,18.425 0 0 0 -5.743,-0.92 z"
         transform="translate(-2393.068,-302.52)"
         id="path3" />
      <path
         class="d"
         d="m 2423.863,327.614 a 1.8,1.8 0 0 1 1.583,0.608 4.184,4.184 0 0 1 0.728,1.107 c 0.645,1.422 1.027,3.461 0.23,4.605 a 6.334,6.334 0 0 1 -3.981,-3.087 3.236,3.236 0 0 1 -0.347,-1.339 1.957,1.957 0 0 1 1.787,-1.894 z m -5.683,8.025 a 7.742,7.742 0 0 0 1.218,0.737 5.789,5.789 0 0 0 4.883,-0.138 6.116,6.116 0 0 0 -3.345,-3.45 3.664,3.664 0 0 0 -1.442,-0.321 1.884,1.884 0 0 0 -0.319,0 1.766,1.766 0 0 0 -0.995,3.172 z m 6.1,3.433 c -0.777,-0.518 -2.379,-0.309 -3.312,-0.292 a 4.416,4.416 0 0 0 -1.666,0.352 3.5,3.5 0 0 0 -1.218,0.738 1.817,1.817 0 0 0 1.409,3.171 3.3,3.3 0 0 0 1.442,-0.321 c 1.436,-0.62 3.141,-2.32 3.346,-3.648 z m 2.61,2 a 6.556,6.556 0 0 0 -3.724,3.506 3.091,3.091 0 0 0 -0.321,1.314 1.907,1.907 0 0 0 3.3,1.346 7.422,7.422 0 0 0 0.7,-1.218 c 0.621,-1.333 0.866,-3.72 0.046,-4.948 z m 2.557,-7.167 a 5.941,5.941 0 0 0 3.7,-3.167 3.243,3.243 0 0 0 0.319,-1.346 1.915,1.915 0 0 0 -1.794,-1.954 1.832,1.832 0 0 0 -1.6,0.641 7.382,7.382 0 0 0 -0.705,1.218 c -0.62,1.434 -0.842,3.48 0.081,4.603 z m 4.208,12.115 a 3.244,3.244 0 0 0 -0.321,-1.345 5.869,5.869 0 0 0 -3.554,-3.269 5.386,5.386 0 0 0 -0.226,4.711 4.147,4.147 0 0 0 0.7,1.121 c 1.133,1.23 3.505,0.32 3.402,-1.218 z m 4.2,-6.28 a 7.466,7.466 0 0 0 -1.217,-0.7 4.425,4.425 0 0 0 -1.666,-0.352 6.4,6.4 0 0 0 -3.188,0.555 5.959,5.959 0 0 0 3.316,3.386 3.672,3.672 0 0 0 1.442,0.32 1.8,1.8 0 0 0 1.31,-3.209 z"
         transform="translate(-2407.197,-317.034)"
         id="path4" />
    </g>
  </g>
</svg>
