<?xml version="1.0" encoding="UTF-8" standalone="no"?>
<svg
   width="69.729507"
   height="42"
   viewBox="0 0 69.729507 42"
   fill="none"
   version="1.1"
   id="svg15"
   sodipodi:docname="fsoft.svg"
   xmlns:inkscape="http://www.inkscape.org/namespaces/inkscape"
   xmlns:sodipodi="http://sodipodi.sourceforge.net/DTD/sodipodi-0.dtd"
   xmlns="http://www.w3.org/2000/svg"
   xmlns:svg="http://www.w3.org/2000/svg">
  <sodipodi:namedview
     id="namedview15"
     pagecolor="#ffffff"
     bordercolor="#000000"
     borderopacity="0.25"
     inkscape:showpageshadow="2"
     inkscape:pageopacity="0.0"
     inkscape:pagecheckerboard="0"
     inkscape:deskcolor="#d1d1d1" />
  <g
     clip-path="url(#clip0_6106_106056)"
     id="g15"
     inkscape:export-filename="g15.svg"
     inkscape:export-xdpi="96"
     inkscape:export-ydpi="96">
    <path
       d="m 64.6642,33.0242 c 0,-0.4967 0.1487,-0.9822 0.4272,-1.3952 0.2785,-0.4129 0.6744,-0.7346 1.1375,-0.9245 0.4631,-0.1898 0.9726,-0.2392 1.464,-0.142 0.4914,0.0973 0.9427,0.3369 1.2967,0.6885 0.354,0.3516 0.5948,0.7994 0.6919,1.2867 0.0971,0.4873 0.0462,0.9922 -0.1463,1.4508 -0.1925,0.4586 -0.5179,0.8503 -0.9351,1.1255 -0.4172,0.2753 -0.9073,0.4216 -1.4085,0.4206 -0.6699,-0.0028 -1.3114,-0.2685 -1.7841,-0.7389 -0.4727,-0.4705 -0.7381,-1.1075 -0.7381,-1.7715 m 4.4414,0 c -0.0104,-0.4913 -0.2159,-0.9588 -0.572,-1.3008 -0.3561,-0.3421 -0.8339,-0.5311 -1.3297,-0.5259 -0.4959,0.0051 -0.9696,0.2039 -1.3184,0.5533 -0.3488,0.3493 -0.5444,0.8209 -0.5444,1.3124 0,0.4915 0.1956,0.9631 0.5444,1.3125 0.3488,0.3493 0.8225,0.5481 1.3184,0.5533 0.4958,0.0051 0.9736,-0.1839 1.3297,-0.5259 0.3561,-0.342 0.5616,-0.8095 0.572,-1.3009 -0.003,-0.0259 -0.003,-0.0521 0,-0.078 z m -2.884,-1.424 h 1.0487 c 0.6869,0 1.0487,0.2338 1.0487,0.8367 0.013,0.1895 -0.0504,0.3764 -0.1762,0.5196 -0.1258,0.1432 -0.3038,0.2311 -0.4949,0.2445 h -0.0839 l 0.7708,1.2369 h -0.5611 l -0.7393,-1.2214 h -0.3251 v 1.2214 h -0.5244 z m 0.5244,1.2161 h 0.4719 c 0.3094,0 0.5663,-0.0467 0.5663,-0.4261 0,-0.3794 -0.3041,-0.3898 -0.5663,-0.3898 h -0.4772 z"
       fill="#1169a1"
       id="path1" />
    <path
       d="m 56.5104,6.46558 c -1.8115,0.02576 -3.5717,0.60028 -5.0443,1.64639 -1.4725,1.04612 -2.5869,2.51373 -3.1934,4.20583 -0.0629,0.1715 -0.2937,0.894 -0.2937,0.894 l -5.2016,22.3487 h 11.9502 c 1.9973,-0.036 3.9251,-0.7336 5.476,-1.9816 1.5509,-1.2481 2.6357,-2.9748 3.0815,-4.9049 l 5.165,-22.18244 z"
       fill="#16a24b"
       id="path2" />
    <path
       d="M 36.6214,0 C 34.7104,0.00543864 32.8532,0.627766 31.3309,1.77279 29.8086,2.91782 28.704,4.52321 28.1844,6.346 28.1058,6.62666 28.0481,6.90731 27.9904,7.18797 L 19.8943,42.0104 h 11.9344 c 1.9564,-0.0082 3.854,-0.6635 5.3919,-1.8621 1.5379,-1.1985 2.628,-2.8717 3.0975,-4.7542 L 48.5611,0 Z"
       fill="#e37227"
       id="path3" />
    <path
       d="M 13.733,6.46558 C 11.849,6.49289 10.0222,7.1112 8.51491,8.23174 7.00757,9.35228 5.89721,10.9174 5.34324,12.7024 5.32907,12.7872 5.30258,12.8695 5.26458,12.9467 L 5.06533,13.7263 0,35.5345 h 12.2333 c 1.7715,-0.0276 3.4912,-0.5965 4.9243,-1.629 1.4331,-1.0326 2.5097,-2.4784 3.0827,-4.1401 L 20.728,27.6865 25.6937,6.46558 Z"
       fill="#1169a1"
       id="path4" />
    <path
       d="M 11.4992,13.7106 H 11.3105 C 10.4287,13.7153 9.57801,14.0344 8.91414,14.6097 8.2954,15.077 7.83013,15.7154 7.57702,16.4444 L 4.83461,28.2684 H 4.98667 C 5.87467,28.2582 6.7306,27.938 7.40398,27.3641 8.11163,26.8173 8.60934,26.047 8.81451,25.1812 L 9.4385,22.6189 h 5.4219 c 0.897,-0.0041 1.7633,-0.3247 2.4435,-0.9043 0.7082,-0.5388 1.205,-1.3051 1.4053,-2.1674 l 0.042,-0.1559 h -8.5786 l 0.5611,-2.4375 h 7.4039 c 0.8782,-0.0058 1.7257,-0.3208 2.3911,-0.8888 0.7041,-0.5593 1.1973,-1.3375 1.4001,-2.2089 l 0.0367,-0.1559 z"
       fill="#ffffff"
       id="path5" />
    <path
       d="m 41.7234,14.4123 c -0.2406,-0.2331 -0.5263,-0.4154 -0.8399,-0.536 -0.3137,-0.1205 -0.6487,-0.1769 -0.9849,-0.1657 H 29.4481 l -3.3769,14.5527 h 0.1468 c 0.8862,-0.0119 1.7399,-0.332 2.4121,-0.9044 0.7116,-0.5455 1.2101,-1.3188 1.4105,-2.1881 l 0.6083,-2.5986 h 7.2362 c 0.8399,0.0653 1.6745,-0.179 2.3439,-0.6861 0.7253,-0.6226 1.2352,-1.4552 1.4577,-2.3804 l 0.6345,-2.6922 c 0.0498,-0.2166 0.0762,-0.4379 0.0786,-0.6601 0.0155,-0.3226 -0.0377,-0.6447 -0.156,-0.9456 -0.1184,-0.3008 -0.2992,-0.5737 -0.5309,-0.8007 z m -3.2615,4.9479 h -7.0474 l 0.5715,-2.4324 h 7.0422 z"
       fill="#ffffff"
       id="path6" />
    <path
       d="m 62.9758,14.4124 c -0.2382,-0.2349 -0.5227,-0.4185 -0.8359,-0.5392 -0.3131,-0.1207 -0.648,-0.1761 -0.9837,-0.1624 H 50.1446 v 0.0987 c -0.0493,0.2097 -0.0757,0.424 -0.0786,0.6393 -0.0175,0.3273 0.0336,0.6547 0.15,0.9615 0.1164,0.3068 0.2957,0.5864 0.5264,0.8212 0.2399,0.234 0.5255,0.417 0.8393,0.5376 0.3138,0.1207 0.6491,0.1765 0.9855,0.164 h 2.3072 l -2.6218,11.3095 h 0.152 c 0.8871,-0.0101 1.7425,-0.3283 2.4173,-0.8991 0.7071,-0.5496 1.2045,-1.3212 1.4106,-2.1881 l 1.9244,-8.2223 h 5.4429 v -0.1039 c 0.0431,-0.2176 0.0676,-0.4384 0.0734,-0.6601 0.0137,-0.3239 -0.0403,-0.6471 -0.1585,-0.9494 -0.1182,-0.3023 -0.2981,-0.5771 -0.5285,-0.8073 z"
       fill="#ffffff"
       id="path7" />
  </g>
  <defs
     id="defs15">
    <clipPath
       id="clip0_6106_106056">
      <rect
         width="133.56"
         height="42"
         fill="#ffffff"
         id="rect15"
         x="0"
         y="0" />
    </clipPath>
  </defs>
</svg>
